# File created by Blade
# Date/Time:  Fri Jan 16 15:45:48 2015
# Frame Rate: 120.000 fps
#------------------------------------------------------
:FULLY-SPECIFIED
:DEGREES
3581
root -6.247334 35.128532 -9.047077 0.808298 12.341013 -3.065185
Spine -12.078628 -3.390560 4.724589
Head 8.258239 -19.427401 -3.871285
LeftShoulder -18.956582 12.076489 -16.666994
LeftArm 17.640113 9.513428 -69.355869
LeftForeArm 17.602400 -0.000000 11.175811
LeftHand 2.183829 -0.000000 -8.596830
LeftHandThumb1 -26.253704 0.000000 33.147579
RightShoulder -13.307729 24.681312 -42.624634
RightArm 82.723543 66.685515 40.949393
RightForeArm 26.268892 -0.000000 24.287909
RightHand 6.392039 0.000000 -17.634105
RightHandThumb1 -24.326973 -0.000000 -32.862282
LeftUpLeg 6.155587 3.980396 5.840931
LeftLeg -8.380534 -0.000000 0.000000
LeftFoot -13.113151 20.224388 -9.716392
LeftToeBase 22.452991 -0.000000 -0.000000
RightUpLeg 9.376779 -13.602755 1.897630
RightLeg -4.417116 -0.000000 0.000000
RightFoot -9.664295 -34.014426 6.266767
RightToeBase 13.568922 -0.000000 -0.000000
3582
root -6.247341 35.129838 -9.044622 0.808356 12.161825 -3.082384
Spine -12.032989 -3.337911 4.663171
Head 8.238465 -19.419674 -3.584411
LeftShoulder -18.984012 12.103039 -16.667940
LeftArm 17.835544 9.650455 -69.344596
LeftForeArm 17.730037 0.000000 11.180643
LeftHand 2.153052 -0.000000 -8.624840
LeftHandThumb1 -26.253704 0.000000 33.147579
RightShoulder -13.325319 24.673720 -42.547991
RightArm 83.750027 66.770519 41.941610
RightForeArm 25.823031 -0.000000 23.560202
RightHand 6.264934 -0.000000 -18.524533
RightHandThumb1 -24.326973 -0.000000 -32.862282
LeftUpLeg 6.197054 4.107812 5.857015
LeftLeg -8.377698 -0.000000 0.000000
LeftFoot -13.137968 20.256422 -9.738690
LeftToeBase 22.396592 -0.000000 -0.000000
RightUpLeg 9.354052 -13.552878 1.900087
RightLeg -4.405799 -0.000000 0.000000
RightFoot -9.615815 -33.910737 6.209222
RightToeBase 13.564023 -0.000000 -0.000000
3583
root -6.247225 35.131313 -9.042904 0.812782 11.992993 -3.089546
Spine -11.999080 -3.249008 4.586619
Head 8.209721 -19.463018 -3.308318
LeftShoulder -18.959386 12.074108 -16.637933
LeftArm 17.960306 9.802082 -69.325463
LeftForeArm 17.945347 0.000000 11.145593
LeftHand 2.168693 -0.000000 -8.856455
LeftHandThumb1 -26.253704 0.000000 33.147579
RightShoulder -13.345391 24.663669 -42.453648
RightArm 84.282402 66.831828 42.325822
RightForeArm 25.624265 -0.000000 22.837482
RightHand 6.139096 -0.000000 -19.509561
RightHandThumb1 -24.326973 -0.000000 -32.862282
LeftUpLeg 6.234470 4.213767 5.860419
LeftLeg -8.372571 -0.000000 0.000000
LeftFoot -13.136719 20.282190 -9.876847
LeftToeBase 22.131610 -0.000000 -0.000000
RightUpLeg 9.328857 -13.502039 1.892142
RightLeg -4.389641 -0.000000 0.000000
RightFoot -9.595423 -33.799057 6.191778
RightToeBase 13.560470 -0.000000 -0.000000
3584
root -6.247078 35.132054 -9.041710 0.823231 11.841569 -3.109999
Spine -11.964285 -3.132213 4.527089
Head 8.160282 -19.521309 -3.066022
LeftShoulder -18.915878 11.966993 -16.604976
LeftArm 18.009075 10.037443 -69.281197
LeftForeArm 17.989954 -0.000000 11.211621
LeftHand 2.151579 -0.000000 -8.776949
LeftHandThumb1 -26.253704 0.000000 33.147579
RightShoulder -13.439213 24.592193 -42.434313
RightArm 84.588525 66.906411 42.547046
RightForeArm 25.297758 -0.000000 22.230268
RightHand 5.729462 -0.000000 -20.939287
RightHandThumb1 -24.326973 -0.000000 -32.862282
LeftUpLeg 6.260737 4.348579 5.880844
LeftLeg -8.386582 -0.000000 0.000000
LeftFoot -13.175126 20.312809 -9.792005
LeftToeBase 22.342694 -0.000000 -0.000000
RightUpLeg 9.296948 -13.468819 1.899105
RightLeg -4.375014 -0.000000 0.000000
RightFoot -9.563621 -33.675155 6.177811
RightToeBase 13.511410 -0.000000 -0.000000
